<svg width="1314" height="1025" viewBox="0 0 1314 1025" fill="none" xmlns="http://www.w3.org/2000/svg">
<path d="M883.809 675.02L883.81 650.113L908.717 650.114L908.717 675.021L883.809 675.02ZM888.798 655.055L888.751 670.033L903.729 670.079L903.775 655.101L888.798 655.055Z" fill="#BCBEC0"/>
<path d="M883.786 694.963L883.787 670.056L908.694 670.056L908.693 694.963L883.786 694.963ZM888.774 674.998L888.728 689.975L903.706 690.021L903.752 675.044L888.774 674.998Z" fill="#BCBEC0"/>
<path d="M106.115 854.442L106.111 851.91L106.066 171.508L108.598 171.504L789.099 171.475L789.103 174.007L789.132 854.508L786.6 854.512L106.115 854.442ZM111.153 176.465L111.156 849.47L784.16 849.467L784.157 176.463L111.153 176.465Z" fill="#BCBEC0"/>
<path d="M784.077 595.217L784.073 592.685L784.052 171.383L1207.79 171.343L1207.79 173.874L1207.81 595.176L784.077 595.217ZM789.107 176.539L789.102 590.344L1202.91 590.349L1202.91 176.543L789.107 176.539Z" fill="#BCBEC0"/>
<path d="M943.639 854.505L943.636 851.973L943.624 590.242L946.156 590.238L1207.89 590.227L1207.89 592.759L1207.9 854.49L1205.37 854.494L943.639 854.505ZM948.596 595.283L948.581 849.517L1202.82 849.532L1202.83 595.298L948.596 595.283Z" fill="#BCBEC0"/>
<path d="M784.069 854.515L784.036 689.98L948.571 689.947L948.604 854.482L784.069 854.515ZM789.122 694.937L789.125 849.444L943.632 849.441L943.629 694.934L789.122 694.937Z" fill="#BCBEC0"/>
<path d="M784.058 694.944L784.054 590.252L888.746 590.248L888.751 694.94L784.058 694.944ZM789.125 595.308L789.099 689.973L883.763 689.998L883.789 595.334L789.125 595.308Z" fill="#BCBEC0"/>
<path d="M883.833 655.078L883.88 590.286L948.672 590.333L948.625 655.125L883.833 655.078ZM888.753 595.311L888.775 650.09L943.554 650.069L943.533 595.29L888.753 595.311Z" fill="#BCBEC0"/>
<path d="M903.728 694.986L903.752 650.137L948.602 650.161L948.578 695.01L903.728 694.986ZM908.74 655.079L908.769 690.014L943.705 689.985L943.676 655.049L908.74 655.079Z" fill="#BCBEC0"/>
<path d="M102.051 851.975C102.028 759.531 120.178 669.968 155.845 585.512C190.334 504.007 239.703 430.836 302.534 367.899C365.35 305.061 438.581 255.721 520.099 221.161C604.535 185.443 694.173 167.358 786.518 167.319C843.928 167.31 899.652 178.576 952.025 200.751C1002.7 222.151 1048.15 252.848 1087.23 291.849C1126.3 330.85 1156.94 376.411 1178.39 426.993C1200.55 479.411 1211.76 535.154 1211.77 592.564C1211.75 663.537 1184.17 730.24 1133.98 780.5C1083.8 830.661 1017.04 858.348 946.07 858.333C937.159 858.337 928.457 857.666 919.963 856.319C840.752 843.759 780.071 775.008 780.01 692.379C779.976 633.851 827.638 586.127 886.248 586.206C922.796 586.23 952.607 615.966 952.583 652.513C952.549 664.86 947.758 676.554 938.982 685.287C930.206 694.021 918.605 698.864 906.143 698.913L902.905 698.905C896.723 698.938 890.933 696.501 886.46 692.147C882.085 687.808 879.672 681.958 879.64 675.777L879.654 669.299C879.622 663.118 882.059 657.328 886.413 652.855C890.752 648.48 896.602 646.066 902.783 646.034L906.022 646.041L905.993 658.997L902.754 658.989C900.024 658.962 897.518 660.083 895.593 662.005C893.668 663.927 892.653 666.5 892.625 669.23L892.61 675.707C892.583 678.436 893.704 680.943 895.626 682.868C897.549 684.793 900.121 685.808 902.851 685.836L906.089 685.843C915 685.839 923.341 682.402 929.719 676.022C935.982 669.726 939.533 661.379 939.529 652.468C939.527 623.106 915.582 599.16 886.219 599.162C834.793 599.107 793.02 640.982 792.966 692.408C792.957 776.747 861.645 845.452 945.985 845.46C1013.52 845.437 1076.92 819.141 1124.68 771.432C1172.44 723.723 1198.71 660.253 1198.68 592.716C1198.7 537.033 1187.82 483.062 1166.31 432.267C1145.54 383.208 1115.78 339.103 1077.95 301.211C1040.11 263.319 996.016 233.647 946.86 212.892C896.004 191.362 842.043 180.477 786.359 180.457C695.74 180.465 607.776 198.208 524.978 233.173C444.999 266.965 373.225 315.422 311.501 377.117C250.074 438.859 201.731 510.674 167.887 590.661C132.897 673.402 115.097 761.4 115.105 852.02L102.051 851.975Z" fill="#808285"/>
</svg>
