<svg width="934" height="934" viewBox="0 0 934 934" fill="none" xmlns="http://www.w3.org/2000/svg">
<path d="M466.667 571.2C357.385 571.2 268.8 482.616 268.8 373.333C268.8 264.051 357.384 175.467 466.667 175.467C575.949 175.467 664.533 264.051 664.533 373.333C664.533 482.616 575.949 571.2 466.667 571.2ZM377.068 436.8C377.068 438.857 378.724 440.529 380.808 440.529H552.528C554.59 440.529 556.267 438.8 556.267 436.8C556.267 434.737 554.611 433.066 552.528 433.066H380.808C378.745 433.066 377.068 434.795 377.068 436.8V436.8ZM377.068 373.331C377.068 375.393 378.724 377.065 380.808 377.065H552.528C554.59 377.065 556.267 375.331 556.267 373.331C556.267 371.268 554.611 369.596 552.528 369.596H380.808C378.745 369.596 377.068 371.331 377.068 373.331V373.331ZM377.068 309.861C377.068 311.924 378.724 313.596 380.808 313.596H552.528C554.59 313.596 556.267 311.867 556.267 309.861C556.267 307.804 554.611 306.132 552.528 306.132H380.808C378.745 306.132 377.068 307.861 377.068 309.861V309.861Z" fill="black"/>
</svg>
